<?xml version="1.0" encoding="UTF-8" standalone="no"?><svg xmlns="http://www.w3.org/2000/svg" xmlns:xlink="http://www.w3.org/1999/xlink" contentScriptType="application/ecmascript" contentStyleType="text/css" height="321px" preserveAspectRatio="none" style="width:934px;height:321px;background:#FFFFFF;" version="1.1" viewBox="0 0 934 321" width="934px" zoomAndPan="magnify"><defs><filter height="300%" id="f9s3k98x683v7" width="300%" x="-1" y="-1"><feGaussianBlur result="blurOut" stdDeviation="2.0"/><feColorMatrix in="blurOut" result="blurOut2" type="matrix" values="0 0 0 0 0 0 0 0 0 0 0 0 0 0 0 0 0 0 .4 0"/><feOffset dx="4.0" dy="4.0" in="blurOut2" result="blurOut3"/><feBlend in="SourceGraphic" in2="blurOut3" mode="normal"/></filter></defs><g><!--MD5=[92146a77df6fc6292d27c57f3eb8ce1a]
entity ChangeLog--><path d="M181.5,143.5 C181.5,133.5 242.5,133.5 242.5,133.5 C242.5,133.5 303.5,133.5 303.5,143.5 L303.5,170.1094 C303.5,180.1094 242.5,180.1094 242.5,180.1094 C242.5,180.1094 181.5,180.1094 181.5,170.1094 L181.5,143.5 " fill="#FFFFFF" filter="url(#f9s3k98x683v7)" style="stroke:#000000;stroke-width:1.5;"/><path d="M181.5,143.5 C181.5,153.5 242.5,153.5 242.5,153.5 C242.5,153.5 303.5,153.5 303.5,143.5 " fill="none" style="stroke:#000000;stroke-width:1.5;"/><text fill="#000000" font-family="sans-serif" font-size="14" lengthAdjust="spacing" textLength="102" x="191.5" y="172.0332">ChangeLogメモ</text><!--MD5=[4879368c5b6fc5f9c8684b4184d4d294]
entity CSVFile--><path d="M602,143.5 C602,133.5 764.5,133.5 764.5,133.5 C764.5,133.5 927,133.5 927,143.5 L927,170.1094 C927,180.1094 764.5,180.1094 764.5,180.1094 C764.5,180.1094 602,180.1094 602,170.1094 L602,143.5 " fill="#FFFFFF" filter="url(#f9s3k98x683v7)" style="stroke:#000000;stroke-width:1.5;"/><path d="M602,143.5 C602,153.5 764.5,153.5 764.5,153.5 C764.5,153.5 927,153.5 927,143.5 " fill="none" style="stroke:#000000;stroke-width:1.5;"/><text fill="#000000" font-family="sans-serif" font-size="14" lengthAdjust="spacing" textLength="305" x="612" y="172.0332">家計簿アプリからエクスポートした.csvファイル</text><!--MD5=[8c36fd5a9e8584263bd5cb623f1d8c5e]
class SyncKakeiboConfig--><rect codeLine="10" fill="#FEFECE" filter="url(#f9s3k98x683v7)" height="48" id="SyncKakeiboConfig" style="stroke:#A80036;stroke-width:1.5;" width="139" x="7" y="133"/><ellipse cx="22" cy="149" fill="#ADD1B2" rx="11" ry="11" style="stroke:#A80036;stroke-width:1.0;"/><path d="M25.6875,150.2031 Q25.4375,153.6875 24.2969,154.8438 Q23.2656,155.8594 21.8594,155.8594 Q20.4531,155.8594 19.4219,154.8438 Q17.6719,153.0781 17.6719,149.4063 Q17.6719,145.1563 19.5469,143.25 Q20.5938,142.2344 21.9219,142.2344 Q23.3281,142.2344 24.1719,143.0469 Q25.6563,144.5625 25.5781,147.4375 L23.4531,147.4375 Q23.375,145.1094 22.7344,144.4688 Q22.4531,144.1719 21.9219,144.1719 Q21.4688,144.1719 21.1094,144.5469 Q19.875,145.7656 19.875,149.2813 Q19.875,152.3281 20.9219,153.3438 Q21.3438,153.7813 21.8594,153.7813 Q22.3125,153.7813 22.75,153.3438 Q23.3125,152.7969 23.3906,150.2031 L25.6875,150.2031 Z " fill="#000000"/><text fill="#000000" font-family="sans-serif" font-size="12" lengthAdjust="spacing" textLength="107" x="36" y="153.9102">SyncKakeiboConfig</text><line style="stroke:#A80036;stroke-width:1.5;" x1="8" x2="145" y1="165" y2="165"/><line style="stroke:#A80036;stroke-width:1.5;" x1="8" x2="145" y1="173" y2="173"/><!--MD5=[737a1ece4d42ed1800c218046c65e626]
class ExpenseItem--><rect codeLine="12" fill="#FEFECE" filter="url(#f9s3k98x683v7)" height="48" id="ExpenseItem" style="stroke:#A80036;stroke-width:1.5;" width="104" x="403.5" y="259"/><ellipse cx="418.5" cy="275" fill="#ADD1B2" rx="11" ry="11" style="stroke:#A80036;stroke-width:1.0;"/><path d="M422.1875,276.2031 Q421.9375,279.6875 420.7969,280.8438 Q419.7656,281.8594 418.3594,281.8594 Q416.9531,281.8594 415.9219,280.8438 Q414.1719,279.0781 414.1719,275.4063 Q414.1719,271.1563 416.0469,269.25 Q417.0938,268.2344 418.4219,268.2344 Q419.8281,268.2344 420.6719,269.0469 Q422.1563,270.5625 422.0781,273.4375 L419.9531,273.4375 Q419.875,271.1094 419.2344,270.4688 Q418.9531,270.1719 418.4219,270.1719 Q417.9688,270.1719 417.6094,270.5469 Q416.375,271.7656 416.375,275.2813 Q416.375,278.3281 417.4219,279.3438 Q417.8438,279.7813 418.3594,279.7813 Q418.8125,279.7813 419.25,279.3438 Q419.8125,278.7969 419.8906,276.2031 L422.1875,276.2031 Z " fill="#000000"/><text fill="#000000" font-family="sans-serif" font-size="12" lengthAdjust="spacing" textLength="72" x="432.5" y="279.9102">ExpenseItem</text><line style="stroke:#A80036;stroke-width:1.5;" x1="404.5" x2="506.5" y1="291" y2="291"/><line style="stroke:#A80036;stroke-width:1.5;" x1="404.5" x2="506.5" y1="299" y2="299"/><!--MD5=[bb82b202858e651cdf684fb6b248015a]
class CashBook--><rect codeLine="14" fill="#FEFECE" filter="url(#f9s3k98x683v7)" height="48" id="CashBook" style="stroke:#A80036;stroke-width:1.5;" width="90" x="471.5" y="7"/><ellipse cx="486.5" cy="23" fill="#ADD1B2" rx="11" ry="11" style="stroke:#A80036;stroke-width:1.0;"/><path d="M490.1875,24.2031 Q489.9375,27.6875 488.7969,28.8438 Q487.7656,29.8594 486.3594,29.8594 Q484.9531,29.8594 483.9219,28.8438 Q482.1719,27.0781 482.1719,23.4063 Q482.1719,19.1563 484.0469,17.25 Q485.0938,16.2344 486.4219,16.2344 Q487.8281,16.2344 488.6719,17.0469 Q490.1563,18.5625 490.0781,21.4375 L487.9531,21.4375 Q487.875,19.1094 487.2344,18.4688 Q486.9531,18.1719 486.4219,18.1719 Q485.9688,18.1719 485.6094,18.5469 Q484.375,19.7656 484.375,23.2813 Q484.375,26.3281 485.4219,27.3438 Q485.8438,27.7813 486.3594,27.7813 Q486.8125,27.7813 487.25,27.3438 Q487.8125,26.7969 487.8906,24.2031 L490.1875,24.2031 Z " fill="#000000"/><text fill="#000000" font-family="sans-serif" font-size="12" lengthAdjust="spacing" textLength="58" x="500.5" y="27.9102">CashBook</text><line style="stroke:#A80036;stroke-width:1.5;" x1="472.5" x2="560.5" y1="39" y2="39"/><line style="stroke:#A80036;stroke-width:1.5;" x1="472.5" x2="560.5" y1="47" y2="47"/><!--MD5=[5a3a2eaf3b06f858517199f156cbd513]
class ChangeLogMemo--><rect codeLine="15" fill="#FEFECE" filter="url(#f9s3k98x683v7)" height="48" id="ChangeLogMemo" style="stroke:#A80036;stroke-width:1.5;" width="131" x="177" y="7"/><ellipse cx="192" cy="23" fill="#ADD1B2" rx="11" ry="11" style="stroke:#A80036;stroke-width:1.0;"/><path d="M195.6875,24.2031 Q195.4375,27.6875 194.2969,28.8438 Q193.2656,29.8594 191.8594,29.8594 Q190.4531,29.8594 189.4219,28.8438 Q187.6719,27.0781 187.6719,23.4063 Q187.6719,19.1563 189.5469,17.25 Q190.5938,16.2344 191.9219,16.2344 Q193.3281,16.2344 194.1719,17.0469 Q195.6563,18.5625 195.5781,21.4375 L193.4531,21.4375 Q193.375,19.1094 192.7344,18.4688 Q192.4531,18.1719 191.9219,18.1719 Q191.4688,18.1719 191.1094,18.5469 Q189.875,19.7656 189.875,23.2813 Q189.875,26.3281 190.9219,27.3438 Q191.3438,27.7813 191.8594,27.7813 Q192.3125,27.7813 192.75,27.3438 Q193.3125,26.7969 193.3906,24.2031 L195.6875,24.2031 Z " fill="#000000"/><text fill="#000000" font-family="sans-serif" font-size="12" lengthAdjust="spacing" textLength="99" x="206" y="27.9102">ChangeLogMemo</text><line style="stroke:#A80036;stroke-width:1.5;" x1="178" x2="307" y1="39" y2="39"/><line style="stroke:#A80036;stroke-width:1.5;" x1="178" x2="307" y1="47" y2="47"/><!--MD5=[86851866e58d838f388e739086135e3c]
class BuyLog--><rect codeLine="16" fill="#FEFECE" filter="url(#f9s3k98x683v7)" height="48" id="BuyLog" style="stroke:#A80036;stroke-width:1.5;" width="73" x="363" y="7"/><ellipse cx="378" cy="23" fill="#ADD1B2" rx="11" ry="11" style="stroke:#A80036;stroke-width:1.0;"/><path d="M381.6875,24.2031 Q381.4375,27.6875 380.2969,28.8438 Q379.2656,29.8594 377.8594,29.8594 Q376.4531,29.8594 375.4219,28.8438 Q373.6719,27.0781 373.6719,23.4063 Q373.6719,19.1563 375.5469,17.25 Q376.5938,16.2344 377.9219,16.2344 Q379.3281,16.2344 380.1719,17.0469 Q381.6563,18.5625 381.5781,21.4375 L379.4531,21.4375 Q379.375,19.1094 378.7344,18.4688 Q378.4531,18.1719 377.9219,18.1719 Q377.4688,18.1719 377.1094,18.5469 Q375.875,19.7656 375.875,23.2813 Q375.875,26.3281 376.9219,27.3438 Q377.3438,27.7813 377.8594,27.7813 Q378.3125,27.7813 378.75,27.3438 Q379.3125,26.7969 379.3906,24.2031 L381.6875,24.2031 Z " fill="#000000"/><text fill="#000000" font-family="sans-serif" font-size="12" lengthAdjust="spacing" textLength="41" x="392" y="27.9102">BuyLog</text><line style="stroke:#A80036;stroke-width:1.5;" x1="364" x2="435" y1="39" y2="39"/><line style="stroke:#A80036;stroke-width:1.5;" x1="364" x2="435" y1="47" y2="47"/><!--MD5=[3827ba266714f0eac4e8878db749fbc6]
class CashItem--><rect codeLine="18" fill="#FEFECE" filter="url(#f9s3k98x683v7)" height="48" id="CashItem" style="stroke:#A80036;stroke-width:1.5;" width="86" x="356.5" y="133"/><ellipse cx="371.5" cy="149" fill="#ADD1B2" rx="11" ry="11" style="stroke:#A80036;stroke-width:1.0;"/><path d="M375.1875,150.2031 Q374.9375,153.6875 373.7969,154.8438 Q372.7656,155.8594 371.3594,155.8594 Q369.9531,155.8594 368.9219,154.8438 Q367.1719,153.0781 367.1719,149.4063 Q367.1719,145.1563 369.0469,143.25 Q370.0938,142.2344 371.4219,142.2344 Q372.8281,142.2344 373.6719,143.0469 Q375.1563,144.5625 375.0781,147.4375 L372.9531,147.4375 Q372.875,145.1094 372.2344,144.4688 Q371.9531,144.1719 371.4219,144.1719 Q370.9688,144.1719 370.6094,144.5469 Q369.375,145.7656 369.375,149.2813 Q369.375,152.3281 370.4219,153.3438 Q370.8438,153.7813 371.3594,153.7813 Q371.8125,153.7813 372.25,153.3438 Q372.8125,152.7969 372.8906,150.2031 L375.1875,150.2031 Z " fill="#000000"/><text fill="#000000" font-family="sans-serif" font-size="12" lengthAdjust="spacing" textLength="54" x="385.5" y="153.9102">CashItem</text><line style="stroke:#A80036;stroke-width:1.5;" x1="357.5" x2="441.5" y1="165" y2="165"/><line style="stroke:#A80036;stroke-width:1.5;" x1="357.5" x2="441.5" y1="173" y2="173"/><!--MD5=[8d2f6793e6e520f96d96063af256733b]
link ChangeLogMemo to SyncKakeiboConfig--><path codeLine="20" d="M176.82,48.54 C154.42,56.67 130.52,68.41 112.5,85 C99.9,96.61 91.06,113.63 85.29,128.09 " fill="none" id="ChangeLogMemo-to-SyncKakeiboConfig" style="stroke:#A80036;stroke-width:1.0;stroke-dasharray:7.0,7.0;"/><polygon fill="#A80036" points="83.45,132.89,90.3999,125.9115,85.2353,128.2196,82.9273,123.055,83.45,132.89" style="stroke:#A80036;stroke-width:1.0;"/><text fill="#000000" font-family="sans-serif" font-size="13" lengthAdjust="spacing" textLength="117" x="113.5" y="99.4951">設定ファイルを読む</text><!--MD5=[bb237d60d19549eee39feefe12c7c2a1]
link CashBook to ExpenseItem--><path codeLine="22" d="M516.76,55.26 C516.46,92.96 512.83,169.21 490.5,229 C487.18,237.89 482.14,246.79 476.9,254.69 " fill="none" id="CashBook-to-ExpenseItem" style="stroke:#A80036;stroke-width:1.0;stroke-dasharray:7.0,7.0;"/><polygon fill="#A80036" points="473.99,258.98,482.3644,253.7964,476.8062,254.8486,475.7541,249.2904,473.99,258.98" style="stroke:#A80036;stroke-width:1.0;"/><text fill="#000000" font-family="sans-serif" font-size="13" lengthAdjust="spacing" textLength="52" x="513.5" y="162.4951">費目変換</text><!--MD5=[4b0cf8b652ee9c127b06f22f427922a6]
link CashItem to ExpenseItem--><path codeLine="23" d="M409.9,181.03 C419.23,201.7 432.95,232.07 442.9,254.1 " fill="none" id="CashItem-to-ExpenseItem" style="stroke:#A80036;stroke-width:1.0;stroke-dasharray:7.0,7.0;"/><polygon fill="#A80036" points="444.96,258.67,444.9029,248.8213,442.9028,254.1128,437.6113,252.1128,444.96,258.67" style="stroke:#A80036;stroke-width:1.0;"/><text fill="#000000" font-family="sans-serif" font-size="13" lengthAdjust="spacing" textLength="52" x="432.5" y="225.4951">費目変換</text><!--MD5=[0708d4ebf5c92321d83038ecaa188b05]
link CashBook to CSVFile--><path codeLine="25" d="M561.7,54.6 C604.92,76.21 669.96,108.73 714.66,131.08 " fill="none" id="CashBook-to-CSVFile" style="stroke:#A80036;stroke-width:1.0;stroke-dasharray:7.0,7.0;"/><polygon fill="#A80036" points="719.19,133.35,712.9193,125.7554,714.715,131.1197,709.3507,132.9154,719.19,133.35" style="stroke:#A80036;stroke-width:1.0;"/><text fill="#000000" font-family="sans-serif" font-size="13" lengthAdjust="spacing" textLength="64" x="655.5" y="99.4951">読む / 書く</text><!--MD5=[4f479f696023a2559d6f484d52419ed7]
link ChangeLogMemo to ChangeLog--><path codeLine="26" d="M240.9,55.21 C240.34,64.47 239.78,75.23 239.5,85 C239.1,99.26 239.67,115.13 240.42,128.24 " fill="none" id="ChangeLogMemo-to-ChangeLog" style="stroke:#A80036;stroke-width:1.0;stroke-dasharray:7.0,7.0;"/><polygon fill="#A80036" points="240.73,133.3,244.1822,124.076,240.4297,128.309,236.1967,124.5565,240.73,133.3" style="stroke:#A80036;stroke-width:1.0;"/><text fill="#000000" font-family="sans-serif" font-size="13" lengthAdjust="spacing" textLength="64" x="240.5" y="99.4951">読む / 書く</text><!--MD5=[086d5fa29b15733790142079dcba01a7]
link CashBook to CashItem--><path codeLine="28" d="M489.8,55.01 C479.7,64.06 468.29,74.74 458.5,85 C445.27,98.87 431.52,115.28 420.62,128.83 " fill="none" id="CashBook-to-CashItem" style="stroke:#A80036;stroke-width:1.0;stroke-dasharray:7.0,7.0;"/><polygon fill="#A80036" points="417.34,132.94,426.0918,128.4227,420.4687,129.0398,419.8515,123.4168,417.34,132.94" style="stroke:#A80036;stroke-width:1.0;"/><text fill="#000000" font-family="sans-serif" font-size="13" lengthAdjust="spacing" textLength="26" x="459.5" y="99.4951">生成</text><!--MD5=[0441b304d09100d31cdba76eba40bab8]
link ChangeLogMemo to CashItem--><path codeLine="29" d="M271.66,55.03 C298.46,76.19 338.14,107.54 366.18,129.68 " fill="none" id="ChangeLogMemo-to-CashItem" style="stroke:#A80036;stroke-width:1.0;stroke-dasharray:7.0,7.0;"/><polygon fill="#A80036" points="370.23,132.88,365.658,124.1566,366.3104,129.7758,360.6912,130.4281,370.23,132.88" style="stroke:#A80036;stroke-width:1.0;"/><text fill="#000000" font-family="sans-serif" font-size="13" lengthAdjust="spacing" textLength="26" x="331.5" y="99.4951">生成</text><!--MD5=[3ee3452b517f80db567caccea4f44d58]
link BuyLog to CashItem--><path codeLine="31" d="M399.5,67.03 C399.5,67.03 399.5,103.2 399.5,119.34 " fill="none" id="BuyLog-CashItem" style="stroke:#A80036;stroke-width:1.0;stroke-dasharray:7.0,7.0;"/><polygon fill="#A80036" points="399.5,132.67,403.5,123.67,399.5,127.67,395.5,123.67,399.5,132.67" style="stroke:#A80036;stroke-width:1.0;"/><line style="stroke:#A80036;stroke-width:1.0;" x1="399.5" x2="399.5" y1="127.67" y2="119.67"/><polygon fill="#FFFFFF" points="399.5,55.03,395.5,61.03,399.5,67.03,403.5,61.03,399.5,55.03" style="stroke:#A80036;stroke-width:1.0;"/><!--MD5=[2ade14058741293542eff8cc12dc82d4]
@startuml{class.svg}

package "ChangeLogメモ" as ChangeLog <<Database>>
{
}

package "家計簿アプリからエクスポートした.csvファイル" as CSVFile <<Database>> 
{
}

class SyncKakeiboConfig

class ExpenseItem

class CashBook
class ChangeLogMemo
class BuyLog

class CashItem

ChangeLogMemo ..> SyncKakeiboConfig : 設定ファイルを読む

CashBook ..> ExpenseItem : 費目変換
CashItem ..> ExpenseItem : 費目変換

CashBook ..> CSVFile : 読む / 書く
ChangeLogMemo ..> ChangeLog : 読む / 書く

CashBook ..> CashItem : 生成
ChangeLogMemo ..> CashItem : 生成

BuyLog o..> CashItem




@enduml

PlantUML version 1.2021.10(Mon Aug 30 22:43:48 JST 2021)
(GPL source distribution)
Java Runtime: OpenJDK Runtime Environment
JVM: OpenJDK 64-Bit Server VM
Default Encoding: MS932
Language: ja
Country: JP
--></g></svg>