<?xml version="1.0" encoding="UTF-8" standalone="no"?><svg xmlns="http://www.w3.org/2000/svg" xmlns:xlink="http://www.w3.org/1999/xlink" contentScriptType="application/ecmascript" contentStyleType="text/css" height="388px" preserveAspectRatio="none" style="width:540px;height:388px;background:#FFFFFF;" version="1.1" viewBox="0 0 540 388" width="540px" zoomAndPan="magnify"><defs><filter height="300%" id="f1lpo3jz0uv4m5" width="300%" x="-1" y="-1"><feGaussianBlur result="blurOut" stdDeviation="2.0"/><feColorMatrix in="blurOut" result="blurOut2" type="matrix" values="0 0 0 0 0 0 0 0 0 0 0 0 0 0 0 0 0 0 .4 0"/><feOffset dx="4.0" dy="4.0" in="blurOut2" result="blurOut3"/><feBlend in="SourceGraphic" in2="blurOut3" mode="normal"/></filter></defs><g><!--MD5=[47973610d6dc68264315f43ad8ea827e]
cluster PC--><polygon fill="#FFFFFF" filter="url(#f1lpo3jz0uv4m5)" points="16,151.5,41,151.5,48,175.1094,303,175.1094,303,376.5,16,376.5,16,151.5" style="stroke:#000000;stroke-width:1.5;"/><line style="stroke:#000000;stroke-width:1.5;" x1="16" x2="48" y1="175.1094" y2="175.1094"/><text fill="#000000" font-family="sans-serif" font-size="14" font-weight="bold" lengthAdjust="spacing" textLength="19" x="20" y="168.0332">PC</text><!--MD5=[eb72d209dad5f5a5c407980cb7d07d1f]
cluster dropbox--><path d="M336.2718,286.2648 C339.8976,279.611 345.5082,279.4975 348.9031,286.4787 C352.1098,280.5187 356.9634,280.3923 361.1117,285.4338 C362.7605,280.4733 367.5014,278.8095 371.3585,282.9465 C374.9432,276.5018 380.6646,277.4915 383.833,283.368 C386.4971,276.2028 390.2821,275.1197 395.7662,280.7348 C399.9677,276.0681 403.9448,276.104 407.5455,281.4421 C412.1708,276.6671 416.28,278.1112 419.0876,283.5052 C424.5979,277.1778 428.8461,277.313 432.8152,285.0134 C437.0513,279.6702 441.1471,279.1316 444.8497,285.5588 C448.8176,280.9211 452.9071,282.6473 455.2128,287.3943 C462.0546,290.1409 463.3335,293.974 457.7752,299.3731 C466.4105,303.0043 466.3646,308.7925 459.5571,314.2708 C466.4813,317.2454 468.4973,322.8685 461.9319,328.1511 C467.2008,334.4109 464.9759,338.2065 458.2126,340.9772 C464.3999,344.6557 464.5564,350.9135 458.3119,354.682 C465.2314,359.3561 463.1095,365.6821 456.7715,368.9221 C454.3082,375.0796 448.7139,377.2478 443.9007,371.4524 C440.4533,377.3996 436.0848,377.2745 432.0791,372.0428 C428.7549,379.2141 423.9302,379.3213 419.2876,373.3235 C417.437,379.9178 412.0039,380.277 407.926,375.5609 C404.9499,381.5973 398.7403,381.8388 395.3619,375.9861 C390.6216,381.8056 385.9041,379.6577 383.2227,373.8387 C379.3743,378.5109 375.4475,378.4241 372.8484,372.6034 C368.3825,378.7994 363.2297,378.7618 360.0099,371.4216 C356.0118,376.3891 351.9335,377.4333 348.0702,371.2769 C344.1966,376.9503 338.8449,374.6773 336.5598,369.5794 C328.3185,366.9145 326.5035,361.8544 333.0369,355.4941 C325.5239,351.5604 325.6066,346.0099 332.4564,341.4812 C325.218,339.2976 325.1423,333.0964 329.7611,328.4586 C323.6879,322.3717 326.6309,317.9291 333.1521,315.0202 C325.5721,310.0665 327.4981,303.228 334.4971,299.541 C329.3069,294.5636 330.1223,289.7263 336.2718,286.2648 " fill="#FFFFFF" filter="url(#f1lpo3jz0uv4m5)" style="stroke:#000000;stroke-width:1.5;"/><text fill="#000000" font-family="sans-serif" font-size="14" font-weight="bold" lengthAdjust="spacing" textLength="59" x="365.5" y="305.0332">dropbox</text><!--MD5=[c3f2c25cbea0b7c71acf40c77a3f6769]
cluster Android端末--><polygon fill="#FFFFFF" filter="url(#f1lpo3jz0uv4m5)" points="327,151.5,416,151.5,423,175.1094,463,175.1094,463,227.5,327,227.5,327,151.5" style="stroke:#000000;stroke-width:1.5;"/><line style="stroke:#000000;stroke-width:1.5;" x1="327" x2="423" y1="175.1094" y2="175.1094"/><text fill="#000000" font-family="sans-serif" font-size="14" font-weight="bold" lengthAdjust="spacing" textLength="83" x="331" y="168.0332">Android端末</text><!--MD5=[ce4c7fec84eccde686f151fd39cc7387]
entity script--><rect fill="#FEFECE" filter="url(#f1lpo3jz0uv4m5)" height="23.6094" style="stroke:#000000;stroke-width:1.5;" width="118" x="169" y="187.5"/><text fill="#000000" font-family="sans-serif" font-size="14" lengthAdjust="spacing" textLength="98" x="179" y="205.0332">同期スクリプト</text><!--MD5=[d7a29f5aad87cb3fb67866233ac71b3c]
entity clmemo--><path d="M32,323.5 C32,313.5 97,313.5 97,313.5 C97,313.5 162,313.5 162,323.5 L162,350.1094 C162,360.1094 97,360.1094 97,360.1094 C97,360.1094 32,360.1094 32,350.1094 L32,323.5 " fill="#FEFECE" filter="url(#f1lpo3jz0uv4m5)" style="stroke:#000000;stroke-width:1.5;"/><path d="M32,323.5 C32,333.5 97,333.5 97,333.5 C97,333.5 162,333.5 162,323.5 " fill="none" style="stroke:#000000;stroke-width:1.5;"/><text fill="#000000" font-family="sans-serif" font-size="14" lengthAdjust="spacing" textLength="110" x="42" y="352.0332">ChanngeLogメモ</text><!--MD5=[e3871ea2d88a9ef45d9c0430c347cd92]
entity intermadiatedata--><path d="M197,323.5 C197,313.5 242,313.5 242,313.5 C242,313.5 287,313.5 287,323.5 L287,350.1094 C287,360.1094 242,360.1094 242,360.1094 C242,360.1094 197,360.1094 197,350.1094 L197,323.5 " fill="#FEFECE" filter="url(#f1lpo3jz0uv4m5)" style="stroke:#000000;stroke-width:1.5;"/><path d="M197,323.5 C197,333.5 242,333.5 242,333.5 C242,333.5 287,333.5 287,323.5 " fill="none" style="stroke:#000000;stroke-width:1.5;"/><text fill="#000000" font-family="sans-serif" font-size="14" lengthAdjust="spacing" textLength="70" x="207" y="352.0332">中間データ</text><!--MD5=[63bb41cda03db9d20ae5c2a751c3fb79]
entity kakeibodata--><path d="M343,323.5 C343,313.5 395,313.5 395,313.5 C395,313.5 447,313.5 447,323.5 L447,350.1094 C447,360.1094 395,360.1094 395,360.1094 C395,360.1094 343,360.1094 343,350.1094 L343,323.5 " fill="#FEFECE" filter="url(#f1lpo3jz0uv4m5)" style="stroke:#000000;stroke-width:1.5;"/><path d="M343,323.5 C343,333.5 395,333.5 395,333.5 C395,333.5 447,333.5 447,323.5 " fill="none" style="stroke:#000000;stroke-width:1.5;"/><text fill="#000000" font-family="sans-serif" font-size="14" lengthAdjust="spacing" textLength="84" x="353" y="352.0332">家計簿データ</text><!--MD5=[4541fb81c80c07473fe4b07432ef0971]
entity app--><rect fill="#FEFECE" filter="url(#f1lpo3jz0uv4m5)" height="23.6094" style="stroke:#000000;stroke-width:1.5;" width="104" x="343" y="187.5"/><text fill="#000000" font-family="sans-serif" font-size="14" lengthAdjust="spacing" textLength="84" x="353" y="205.0332">家計簿アプリ</text><!--MD5=[8fc3522a43f8c7199df5e09e5bb0188e]
entity user--><ellipse cx="311" cy="14" fill="#FEFECE" filter="url(#f1lpo3jz0uv4m5)" rx="8" ry="8" style="stroke:#A80036;stroke-width:1.5;"/><path d="M311,22 L311,49 M298,30 L324,30 M311,49 L298,64 M311,49 L324,64 " fill="none" filter="url(#f1lpo3jz0uv4m5)" style="stroke:#A80036;stroke-width:1.5;"/><text fill="#000000" font-family="sans-serif" font-size="14" lengthAdjust="spacing" textLength="80" x="271" y="84.0332">使用者(自分)</text><!--MD5=[0caf2e8fdb471e00a846ff3461e6a348]
link user to app--><path d="M333.51,87.6 C350.93,119.02 374.1,160.81 386.43,183.05 " fill="none" id="user-to-app" style="stroke:#A80036;stroke-width:1.0;"/><polygon fill="#A80036" points="388.89,187.48,388.0158,177.67,386.4618,183.1092,381.0226,181.5552,388.89,187.48" style="stroke:#A80036;stroke-width:1.0;"/><text fill="#000000" font-family="sans-serif" font-size="13" lengthAdjust="spacing" textLength="173" x="359" y="131.9951">エクスポート/インポート実行</text><!--MD5=[878f3da892370622cbf3f71ba8f210d8]
link app to kakeibodata--><path d="M395,211.59 C395,232.56 395,278.6 395,308.41 " fill="none" id="app-to-kakeibodata" style="stroke:#A80036;stroke-width:1.0;"/><polygon fill="#A80036" points="395,313.41,399,304.41,395,308.41,391,304.41,395,313.41" style="stroke:#A80036;stroke-width:1.0;"/><text fill="#000000" font-family="sans-serif" font-size="13" lengthAdjust="spacing" textLength="26" x="396" y="257.9951">保存</text><!--MD5=[6156af9759637222b4c914fcccd8f968]
link user to script--><path d="M288.76,87.6 C271.54,119.02 248.65,160.81 236.47,183.05 " fill="none" id="user-to-script" style="stroke:#A80036;stroke-width:1.0;"/><polygon fill="#A80036" points="234.04,187.48,241.8694,181.5051,236.4403,183.0938,234.8515,177.6646,234.04,187.48" style="stroke:#A80036;stroke-width:1.0;"/><text fill="#000000" font-family="sans-serif" font-size="13" lengthAdjust="spacing" textLength="26" x="272" y="131.9951">実行</text><!--MD5=[7fec6d425851459a8ac6da43e49d6a5c]
link script to clmemo--><path d="M205.19,211.53 C190.86,219.18 172.59,230.35 159,243.5 C139.4,262.46 122.58,288.61 111.42,308.26 " fill="none" id="script-to-clmemo" style="stroke:#A80036;stroke-width:1.0;"/><polygon fill="#A80036" points="108.71,313.11,116.5922,307.2048,111.1491,308.7453,109.6086,303.3022,108.71,313.11" style="stroke:#A80036;stroke-width:1.0;"/><text fill="#000000" font-family="sans-serif" font-size="13" lengthAdjust="spacing" textLength="56" x="160" y="257.9951">読む/更新</text><!--MD5=[259d9f00f8b3d5b7e45892d837d25524]
link script to kakeibodata--><path d="M241.67,211.59 C268.05,232.99 326.61,280.51 363.25,310.24 " fill="none" id="script-to-kakeibodata" style="stroke:#A80036;stroke-width:1.0;"/><polygon fill="#A80036" points="367.16,313.41,362.6779,304.6401,363.2724,310.2657,357.6469,310.8602,367.16,313.41" style="stroke:#A80036;stroke-width:1.0;"/><text fill="#000000" font-family="sans-serif" font-size="13" lengthAdjust="spacing" textLength="56" x="302" y="257.9951">読む/更新</text><!--MD5=[6859839f28eb054228cf6a847b006cbf]
link script to intermadiatedata--><path d="M227.33,211.81 C226.85,220.48 226.25,232.74 226,243.5 C225.81,251.5 225.16,253.54 226,261.5 C227.67,277.2 231.26,294.45 234.61,308.4 " fill="none" id="script-to-intermadiatedata" style="stroke:#A80036;stroke-width:1.0;"/><polygon fill="#A80036" points="235.84,313.38,237.558,303.6821,234.6374,308.5268,229.7928,305.6062,235.84,313.38" style="stroke:#A80036;stroke-width:1.0;"/><text fill="#000000" font-family="sans-serif" font-size="13" lengthAdjust="spacing" textLength="26" x="227" y="257.9951">生成</text><!--MD5=[a8187070c93c2dcd7ed446ce45415350]
@startuml{overview.svg}

package PC {

card "同期スクリプト" as script

database "ChanngeLogメモ" as clmemo

database "中間データ" as intermadiatedata

}

cloud dropbox {

database "家計簿データ" as kakeibodata

}


package Android端末 {

card "家計簿アプリ" as app

}
actor "使用者(自分)" as user



user -ri-> app : エクスポート/インポート実行
app - -> kakeibodata : 保存

user - -> script : 実行

script - -> clmemo : 読む/更新
script - -> kakeibodata : 読む/更新

script - -> intermadiatedata : 生成


@enduml

PlantUML version 1.2021.10(Mon Aug 30 22:43:48 JST 2021)
(GPL source distribution)
Java Runtime: OpenJDK Runtime Environment
JVM: OpenJDK 64-Bit Server VM
Default Encoding: MS932
Language: ja
Country: JP
--></g></svg>